# xmcd
#
# Track frame offsets:
#	150
#	9150
#	23599
#	32899
#	47669
#	60522
#	72464
#	88060
#	99117
#	108522
#	123176
#	140979
#	151326
#	164218
#	188368
#
# Disc length: 2735 seconds
#
# Revision: 0
# Processed by: cddbd v1.5.2PL0 Copyright (c) Steve Scherf et al.
# Submitted via: audiograbber 1.83.01
#
DISCID=bf0aad0f
DTITLE=Hermann Lammers Meyer - My Life In Song  (The Best Of...)
DYEAR=2004
DGENRE=Country
TTITLE0=Nr. 1 Attraction
TTITLE1=The Best Part Of Nothing (with David Frizzell)
TTITLE2=(Collecting) Honky Tonk Hearts
TTITLE3=The Heart Of A Man
TTITLE4=My Life In Song
TTITLE5=Barstool Paradise (with Anni B.)
TTITLE6=Handle With Care
TTITLE7=Marie Jolie Coeur
TTITLE8=Neon City
TTITLE9=Step By Step
TTITLE10=Jessie Walker
TTITLE11=The Trucker
TTITLE12=(Won't You) Please Send The Clowns
TTITLE13=Honky Tonk Trail
TTITLE14=Bear Creek Lounge
EXTD=
EXTT0=
EXTT1=
EXTT2=
EXTT3=
EXTT4=
EXTT5=
EXTT6=
EXTT7=
EXTT8=
EXTT9=
EXTT10=
EXTT11=
EXTT12=
EXTT13=
EXTT14=
PLAYORDER=
